<?xml version="1.0" encoding="UTF-8"?>
<svg xmlns="http://www.w3.org/2000/svg" version="1.1" viewBox="0 0 2034.56 2452.56">
  <!-- Generator: Adobe Illustrator 28.6.0, SVG Export Plug-In . SVG Version: 1.2.0 Build 709)  -->
  <g>
    <g id="Layer_1">
      <g>
        <path d="M451.03,1292.22c-4.41-7.07-12.73-10.98-11.93-20.77-6.41-4.16-12.48-9.61-16.76-16.92-8.88-15.19-17.89-30.3-26.82-45.45-.84-1.43-2.16-2.88-2.27-4.39-.91-12.3-8.18-22.3-11.94-33.56-1.13-3.38-1.76-6.14,1.18-8.04-2.56-2.8-5.78-5.05-7.2-8.13-4.17-9.05-8.37-18.21-11.07-27.75-1.53-5.39,1.11-11.95-.41-17.34-1.53-5.43-6.52-9.48-6.56-16.16-.03-5.48-2.27-10.94-3.42-16.43-1.08-5.14-1.84-10.34-3.05-15.45-1.11-4.7-3.17-9.23-3.83-13.97-1.2-8.72-3.98-17.22-2.87-26.33.45-3.68-1.19-7.96-2.91-11.47-2.36-4.8-3.15-9.29-1.16-14.33.4-1-.3-2.44-.5-3.74-13.31.4-26.2.21-38.99,1.29-21.94,1.85-41.85-4.75-60.95-14.09-5.67-2.77-9.75-8.8-14.26-13.04-4.02.75-8.25,2.96-10.7,1.7-4.54-2.34-8.47-6.33-11.85-10.31-3.83-4.52-6.78-9.78-10.51-15.31-4.11,2.3-7.86,2.89-11.56-.43-2.93-2.63-6.74-4.29-9.7-6.9-12.37-10.91-24.88-21.68-36.73-33.15-9.96-9.65-19.19-20.07-28.49-30.37-3.25-3.6-5.2-7.66-10.21-10.36-5.85-3.15-9.52-10.04-8.89-18.85-5.27,3.19-7.83.75-10.49-2.84-10.18-13.78-20.61-27.36-30.94-41.03-1-1.32-1.6-3.34-2.9-3.96-9.02-4.31-11.28-13.48-15.62-21.14-1.14-2.02-1.71-4.65-3.35-6.05-4.94-4.23-6.13-10.09-7.44-15.81-3.24-14.13-6.12-28.35-9.15-42.53-.34-1.6-.19-3.8-1.18-4.67-6.73-5.87-5.94-13.02-5.03-20.89.96-8.22.47-16.65.16-24.98-.48-12.68,2.53-24.84,4.64-37.18,4.34-25.43,7.34-51.12,12.4-76.4,4.09-20.44,10.25-40.48,15.83-60.61,1.82-6.55,5.34-12.64,7-19.21,2.06-8.18,5.34-15.97,5.67-24.81.22-5.77,4.12-11.57,6.99-17.03,4.85-9.23,8.47-18.72,8.61-29.29.01-.97-.17-2.17.32-2.86,9.2-12.96,12.37-28.32,17.69-42.88,6.43-17.6,14.48-34.6,21.62-51.95,3.02-7.35,4.54-15.46,8.42-22.26,5.87-10.28,12.15-20.25,15.36-31.77,12.35-6.39,16.99-22.38,31.91-25.61.92-.2,1.8-1.56,2.54-1.44,9.86,1.64,15.58-7.05,23.8-9.43,1.9-.55,3.68-2.34,5.47-2.28,12.01.47,23.05-5.44,34.99-5.12,1.9.05,3.81.38,5.68.8,1.21.27,2.88,1.68,3.42,1.29,6.74-4.82,14.58-1.62,21.8-2.8,6.85-1.12,14.33,1.79,21.56,2.64,7.89.93,15.83,1.51,23.74,2.27,1.66.16,3.41.12,4.94.66,8.99,3.17,17.66,7.91,27.75,5.42,10.06,6.4,22.57,3.74,33,9.07,10.05,5.14,20.66,9.22,30.55,14.64,19.93,10.91,38.02,24.2,52.07,42.49,5.4,7.03,13.17,12.07,17.08,20.53.94,2.03,4.16,3.01,6.81,4.79,1,2.95-1.67,7.21,2.89,10.22,1.76,1.16,1.27,5.96,1.5,9.13.22,2.99.05,6.02.05,9.02.75.22,1.5.45,2.26.67,3.77-4.86,7.46-9.78,11.35-14.55,6.48-7.94,12.97-15.87,19.67-23.62,3.63-4.2,7.31-8.73,15.93-5.8-2.2-4.04-3.08-5.64-4.7-8.6,8.47-8.8,17.6-17.77,26.13-27.29,7.25-8.1,13.71-16.9,20.73-25.22,2.32-2.75,5.24-4.99,7.97-7.37.72-.63,2.15-.66,2.6-1.37,7.59-12.13,20.49-18.63,30.2-28.56,10.42-10.66,20.72-21.61,33.86-29.24,2.49-1.45,4.36-3.93,6.62-5.8,1.73-1.44,3.61-3.78,5.46-3.82,5.79-.12,8.7-4.45,12.5-7.44,3.89-3.07,7.11-7.19,11.33-9.63,18.08-10.44,33.05-25.87,54.07-33,1.74,1.13,4.17,2.69,8.54,5.51.5-1.15,1.89-2.76,1.68-4.13-.92-6.07,3.07-8.09,7.47-9.98,6.05-2.61,12.28-4.88,18.06-8,4.43-2.4,8.28-5.88,12.79-9.17,5.67,4.28,6.68,3.92,18.88-8.21,7.73,2.29,14.98.87,22.41-3.2,9.19-5.03,20.65-5.16,28.86-12.66,10.69,2.24,20.6-3.85,31.17-2.95,1.62.14,3.75.79,4.82.04,8-5.62,17.09-4.01,25.9-4.36,12.91-.52,25.83-1.68,38.73-1.57,21.89.18,43.71,1.61,64.66,8.96,17.63-.55,31.12,12.41,47.88,14.69,7.04,7.13,19.4,5.54,24.89,15.21,10.22,1.31,15.3,10.86,23.95,15.03,5.72,2.75,10.42,8.28,14.64,13.34,6.79,8.15,13,16.82,19.04,25.55,2,2.89,2.88,6.62,3.98,10.06,2.74,8.58,5.84,16.8,13.34,22.69,2.18,1.71,3.24,4.86,5.93,9.11,11.79,2.43,21.52,12.75,32.69,20.78,1.84,1.32,3.62,2.73,5.5,4,2.47,1.68,5.67,2.74,7.4,4.96,9.39,12.1,23.51,18.29,34.53,28.29,5.09,4.62,9.88,9.56,14.8,14.35,7.61-7.42,2.38-15.3,2.87-22.52.16-2.43-1.56-4.76.97-7.11.79-.74.9-3.2.28-4.28-1.65-2.87-1.95-5.23-.35-8.36.81-1.58-.21-4.18-.61-6.27-1.29-6.75-5.35-13.17,1.13-20.13,2.19-2.35,1.78-8.59.54-12.39-2.99-9.19.92-17.78,1.01-26.65.01-1.1,1.15-2.41,2.1-3.23,4.34-3.76,4.57-8.67,3.94-13.74-1.45-11.73,3.17-22,8.2-31.94,1.43-2.83,3.82-5.08,3.84-8.6,0-.91.71-1.84,1.13-2.74,4.6-9.73,9.14-19.49,13.82-29.18,5.74-11.88,14.68-21.32,23.83-30.53,6.46-6.51,14.07-10.47,23.66-10.52,3.06-.02,6.17-2.09,9.14-3.48,2.33-1.09,4.48-2.58,7.39-4.29,3.27,6.84,8.22,6.15,14.2,5.13,6.08-1.04,12.52-.02,18.79.21,1.97.07,3.94.83,5.9.77,14.67-.51,27.02,5.49,38.73,13.46,1.61,1.09,3.34,2.31,5.18,2.7,10.79,2.3,19.55,7.87,26.87,15.97.86.95,1.89,1.81,2.99,2.45,9.71,5.65,20.03,10.46,29.07,17.03,14.74,10.7,29.1,22.03,42.8,34.02,17.72,15.5,34.79,31.76,51.82,48.03,5.01,4.79,8.89,10.75,13.37,16.1,2.53,3.02,5.27,5.86,7.8,8.89,1.22,1.46,2.96,3.07,3.1,4.73.46,5.7,4.57,8.7,8.1,12.14,12.48,12.15,21.98,26.45,30.5,41.52,4.9,8.66,10.38,16.99,15.27,25.65,2.07,3.67,2.95,8.01,5.01,11.69,2.75,4.91,6.14,9.45,9.22,14.17,1.24,1.91,3.44,3.88,3.42,5.81-.11,10.53,5.98,18.91,9.31,28.21,3.46,9.65,9.93,18.75,11.08,28.57,1.31,11.18,7.67,20.09,9.74,30.95,2.32,12.21,5.49,24.24,6.97,36.74,1.07,8.99,4.63,17.68,7.09,26.5.27.96.84,1.92.82,2.87-.52,21.32,7.59,41.7,7.26,62.86-.2,12.91.71,25.66,2.57,38.26,4.46,30.11,1.36,60.32,2.31,90.47.32,10.08.01,20.23-.78,30.29-.48,6.15-3.23,12.14-3.55,18.28-.59,10.95.09,21.98-4.62,32.31,2.25,7.53-3.06,12-6.79,17.19-.9,1.26-.95,3.14-1.54,5.3,4.01,2.9,8.29,5.93,2.59,11.47-1.55,1.5-1.32,4.85-1.87,7.36-1.25,5.79-2.44,11.58-3.72,17.36-.43,1.92-1.73,3.89-1.48,5.67,1.17,8.15-2.18,14.57-6.34,21.22-3.27,5.22-5.04,11.18-6.34,17.55-1.76,8.61-5.84,16.93-9.95,24.84-4.66,8.98-7.38,18.99-14.93,26.58-2.39,2.4-2.06,7.43-3.12,11.22-2.89,10.35-11.57,16.74-17.49,24.99-5.77,8.05-12.89,15.12-19.33,22.69-9.31,10.93-21.29,17.86-34.3,23.32-9.1,3.82-18.08,7.94-27.28,11.49-6.43,2.48-13.09,4.43-19.75,6.23-6.34,1.72-7.77,3.29-7.99,10.46-.6,19.57-1.88,39.08-5.37,58.39-.59,3.24-1.64,6.4-2.53,9.58-.63,2.23-2.34,4.68-1.86,6.6,2.92,11.59-3.21,21.87-4.51,32.82-1.31,11.08-4.27,22.05-7.45,32.79-1.76,5.95-5.43,11.34-8.76,18.01,3.71,4.66,2.21,9.63-1.12,15.3-3.76,6.39-5.94,13.72-9.31,21.85,4.23,1.23,7.58,2.97,10.95,3.03,9.84.17,18.52,4.27,27.67,6.92,5.56,1.61,11.68,1.18,17.49,2.05,8.17,1.23,16.29,2.78,24.42,4.29,1.62.3,3.17,1.47,4.74,1.44,14.58-.28,27.84,5.34,41.63,8.74,11.21,2.76,22.86,3.66,34.16,6.07,13.26,2.83,26.37,6.35,39.52,9.69,7.66,1.95,15.26,5.78,22.89,5.78,9.54,0,17.35,3.89,25.7,6.88,6.55,2.35,12.86,5.61,19.57,7.21,12.32,2.93,23.62,8.64,35.49,12.36,12.8,4,24.99,8.78,36.62,15.19,4.63,2.55,9,5.6,13.37,8.61,13.93,9.6,27.79,19.29,41.68,28.93,1.36.95,2.97,1.62,4.13,2.77,20.13,19.84,44.57,33.49,68.81,47.25,8.74,4.96,14.46,12.62,21.76,18.8.88.74,1.09,2.27,1.64,3.41,2.36,4.94,4.03,10.4,7.24,14.7,10.76,14.44,9.46,24.34-5.4,34.83-2.44,1.72-4.93,3.42-7.57,4.8-4.45,2.32-7.05,5.21-7.23,10.8-.11,3.3-2.46,6.86-4.62,9.69-4.8,6.27-10.14,12.12-15.2,18.19-1.69,2.03-3.35,4.1-4.79,6.31-6.98,10.73-12.59,22.69-21.14,31.95-9.1,9.85-15.15,20.86-19.85,32.89-3.5,8.96-9.24,16.44-14.1,24.53-3.21,5.33-5.52,11.22-8.09,16.92-3.24,7.18-6.72,13.92-11.54,20.5-9.92,13.55-18.4,28.55-18.24,46.35.06,6.49-1.06,12.15-4.54,17.9-2.81,4.64-3.24,10.66-5.19,15.89-3.21,8.64-6.98,17.07-10.14,25.72-1.44,3.94-2,8.19-2.91,12.32-.29,1.3-.13,2.75-.64,3.92-2.33,5.37-5.47,10.48-7.06,16.04-1.58,5.51.62,11.25-2.14,17.37-3.16,7-2.89,15.5-4.34,23.32-4.87,26.35-3.68,52.82-2.77,79.41.29,8.59-.62,17.59-1.2,26.39-.48,7.25-1.15,14.49-1.85,21.73-.58,5.91-1.37,11.8-1.99,17.71-.2,1.92-.24,3.86-.24,5.79.01,13.91,1.32,27.98-.4,41.67-1.02,8.15-1.8,16.38-3.06,24.48-.99,6.35-4.58,12.37-7.38,18.36-5.2,11.12-10.5,22.2-16.1,33.12-2.09,4.07-4.52,8.34-7.85,11.34-13.53,12.18-26.93,24.65-44.48,31.17-2.39.89-4.39,2.8-6.62,4.16-3.08,1.88-5.99,4.4-9.35,5.36-7.42,2.14-14.06,5.2-20.26,10.02-4.43,3.45-11.26,3.46-14.34,9.36-.29.56-2.09.97-2.74.62-6.68-3.61-11.44,1.02-16.58,3.76-11.88,6.34-24.41,11.77-35.36,19.45-19.39,13.6-40.71,23.34-61.66,33.94-22.46,11.37-44.76,23.03-67.01,34.8-6.65,3.52-12.79,7.98-19.36,11.67-11.75,6.59-23.67,12.87-35.46,19.39-5.15,2.85-9.97,6.34-15.26,8.9-3.32,1.61-7.5,1.46-10.82,3.08-19.5,9.51-38.85,19.31-58.26,29-5.01,2.5-10.14,4.77-15.06,7.42-4.84,2.61-9.45,5.65-14.25,8.32-1.7.95-3.63,1.65-5.54,2.02-14.18,2.77-26.27,10.36-39.01,16.54-10.9,5.28-21.39,11.87-33.97,12.95-1.87.16-3.64,1.47-5.45,2.25-22.21,9.55-44.1,19.93-66.72,28.4-21.65,8.11-41.21,20.83-63.29,27.72-15.1,4.71-28.04,14.91-44.11,17.04-5.55,5.88-13.73,2.95-20.4,6.09-6.33,2.99-14.18,2.57-21.09,4.59-9.81,2.86-19.17,7.41-29.09,9.65-8.01,1.81-14.02,9.76-23.24,7.21-8.53,6-18.33,4.04-27.77,4.58-2.25.13-4.73.75-6.63,1.92-11.62,7.1-24.76,8.23-37.74,10.21-8.17,1.25-16.26,2.96-24.39,4.49-.97.18-1.97.96-2.85.81-13.64-2.28-26.66,3.47-40.2,3-6.59-.23-13.22.74-19.83,1.16-.66.04-1.38.22-1.97.02-15.39-5.4-32.16-3.05-47.48-8.36-5.38-1.86-10.08-5.6-15.22-8.24-7.06-3.62-13.93-8.06-21.44-10.27-14.09-4.14-24.2-13.44-34.05-23.35-8.16-8.2-17.23-15.8-23.87-25.12-8.75-12.27-19.28-23.08-27-36.35-5.4-9.29-11.57-18.13-15.82-28.12-.6-1.41-2.01-2.92-3.41-3.47-8.49-3.35-11.91-10.43-14.98-18.33-2.93-7.55-6.76-14.79-10.6-21.95-5.61-10.46-12.4-20.37-17.2-31.17-5.2-11.7-8.79-24.13-12.83-36.33-.56-1.69.53-3.87.53-5.82,0-2.27.1-4.71-.66-6.77-6.98-18.87-13.67-37.88-21.42-56.43-4.82-11.55-11.54-22.29-16.99-33.59-6.54-13.56-13.91-26.43-25.78-36.15-1.01-.82-2.11-1.87-2.51-3.04-4.38-12.66-14.09-20.19-24.84-27.14-5.13-3.32-8.89-8.67-13.8-12.42-2.96-2.26-7.18-2.81-10.39-4.83-3.58-2.24-7.33-4.76-9.83-8.05-7.83-10.34-17.71-17.43-29.49-22.85-21.11-9.72-41.71-20.52-62.64-30.63-4.11-1.98-8.91-2.49-13.1-4.34-12.92-5.71-25.76-11.62-38.49-17.74-3.82-1.83-7.56.35-11.99-1.9-8.87-4.5-18.5-9.26-29.36-6.66-1.24.3-3.18.43-3.89-.28-8.04-7.95-19.66-3.49-28.79-8.49-4.41-2.42-10.87-2.5-16.11-1.72-9.89,1.48-18.78-.83-27.29-5.05-3.6-1.79-6.72-1.51-10.43-1.17-8.84.81-17.65,1.03-26.27-2.6-4.44-1.87-9.95-1.21-14.41-3.06-8.26-3.42-16.34-7.44-24.04-11.98-6.83-4.02-10.75-9.26-9.58-18.75,1.32-10.68-.58-21.75-.93-32.65-.07-2.2-.02-4.69.91-6.58,17.82-36.07,35.59-72.16,53.83-108.02,5.09-10,11.98-19.06,17.45-28.88,4.99-8.98,9.22-18.39,13.71-27.64,9.87-20.34,19.08-41.03,29.67-60.98,14.48-27.27,30.23-53.87,45.01-80.98,13.84-25.38,27.1-51.08,40.71-76.59,2.01-3.78,4.6-7.25,6.87-10.89,4.04-6.47,8.34-12.8,12.01-19.48,4.84-8.82,11.12-16.26,18.08-23.55,7.48-7.84,13.43-17.18,19.68-26.12,4.73-6.78,8.4-14.33,13.47-20.82,2.65-3.4,8.05-4.63,10.81-7.99,2.49-3.03,2.44-8.06,4.69-11.4,2.15-3.2,6.1-5.12,8.8-8.03,4.7-5.06,9.13-10.36,13.5-15.71,2.9-3.56,5.49-7.37,8.47-11.4ZM579.73,1400.77c-4.33-.5-7.83.14-9.79-1.31-9.05-6.69-17.86-13.75-26.42-21.06-10.08-8.61-19.74-17.73-29.75-26.43-6.45-5.6-13.49-5.11-19.43,1.11-2.98,3.12-5.73,6.48-8.46,9.83-6.26,7.69-12.44,15.43-18.65,23.16-4.07,5.08-9.53,8.79-12.53,15.07-2.79,5.86-6.95,11.27-11.38,16.08-3.67,3.98-8.12,6.83-8.29,13.19-.06,2.07-3.03,4.06-4.65,6.09-1.35,1.68-2.96,3.22-3.97,5.09-5.85,10.82-10.66,22.32-17.54,32.43-8.7,12.79-16.2,25.81-19.61,41.01-.64,2.86-2.16,5.57-3.58,8.19-8.08,14.9-16.52,29.61-24.32,44.65-5.22,10.08-10.59,19.89-18.26,28.43-2.91,3.24-4.57,7.76-6.25,11.92-5.22,12.89-10.12,25.93-22.21,34.5-.16,1.82-.36,3.77-.5,5.71-.61,8.41-2.15,15.92-9.39,22.04-4.2,3.55-7.81,9.81-8.34,15.19-.78,7.83-2.74,14.89-6.32,21.62-6.38,12.04-13.3,23.8-19.45,35.95-10.05,19.89-19.73,39.97-29.41,60.05-2.23,4.62-3.8,9.55-5.81,14.67,9.61,1.87,17.96,3.78,26.4,5.08,18.95,2.92,37.94,5.55,56.92,8.31.64.09,1.4.29,1.84.71,4.15,3.92,9.3,2.82,14.23,3.03,3.93.17,7.97.17,11.76,1.07,24.53,5.84,48.83,12.48,71.94,22.8,20.53,9.16,40.96,18.53,61.38,27.94,4.8,2.21,9.34,5.01,14.05,7.43,7.91,4.06,14.83,9.67,22.19,14.38,9.69,6.2,19.6,12.39,29.76,17.87,15.22,8.21,26.86,20.65,39.4,31.82,10.52,9.37,20.42,19.66,28.93,31.38,12.33,16.98,25.16,33.65,34.22,52.56,11.89,24.8,22.73,50,30.84,76.53,8.2,26.85,18.88,53.04,31.92,78.07,3.04,5.84,7.38,11.03,11.31,16.38,2.73,3.72,6.08,7,8.67,10.81,12.49,18.4,24.85,36.89,37.19,55.39,20.26,30.37,47.55,52.47,80.59,67.35,7.68,3.46,16.5,4.76,24.96,6.02,8.48,1.26,17.16,1.29,25.76,1.73,3.3.17,7.06.96,9.84-.27,10.03-4.48,20.76-3.82,31.19-5.3,5.86-.83,12.21-.82,17.36-3.26,4.5-2.13,8.38-3.13,13.18-2.56,2.85.34,6.38.39,8.66-.98,7.08-4.27,14.69-3.91,22.32-3.7,11.41.32,20.78-2.68,25.14-15.12,3.13,1.24,7.32,3.89,8.17,3.07,4.54-4.36,7.87-.02,11.65.7,1.61.31,3.44,1.04,4.83.57,9.05-3.03,18.32-5.68,26.92-9.73,10.82-5.09,23.15-6.71,32.83-14.37.67-.53,1.93-.5,2.9-.46,7.37.35,13.51-2.99,19.69-6.33,1.71-.92,3.52-1.72,5.38-2.27,8.47-2.53,17.23-4.29,25.39-7.57,11.97-4.81,23.45-10.79,35.24-16.06,20.56-9.19,41.18-18.23,61.8-27.29,20.36-8.96,40.86-17.61,61.09-26.87,30.8-14.1,61.54-28.35,92.06-43.05,11.9-5.73,24.72-10.12,34.32-19.96.83-.85,2.4-1.58,3.53-1.46,6.1.62,10.68-3.01,15.72-5.3,4.53-2.05,9.07-4.1,13.44-6.45,5.97-3.21,11.79-6.7,19.18-10.94,6.48.73,6.44.65,13.67-3.64,7.95-4.72,15.9-9.44,24.01-13.87,9.29-5.08,19.42-8.91,27.95-15.02,7.49-5.37,14.65-10.66,23.12-14.68,13.38-6.35,25.63-15.06,38.91-21.66,21.67-10.77,41.3-25.28,63.78-34.5.3-.12.52-.41.79-.59,13.22-8.86,26.57-17.53,39.56-26.72,3.03-2.14,5.92-5.72,6.96-9.21,4.34-14.56,8.62-29.22,7.43-44.75-.2-2.63.22-5.3.35-7.95.97-19.49,2.54-38.97,2.71-58.46.12-13.63,1.07-27.04,3.54-40.4,1.26-6.84,1.45-13.99,3.57-20.53,3.13-9.67,1.32-19.6,3.01-29.29,1.74-9.99,2.5-20.14,4.15-30.15,2.1-12.75,4.33-25.51,7.11-38.12,3.53-16,7.53-31.9,11.62-47.77,2.48-9.6,4.51-19.52,8.61-28.43,3.2-6.94,6.58-13.64,8.48-21.08.9-3.51,2.51-6.84,3.8-10.25,4.9-12.88,15.9-23.12,16.35-37.92,0-.31.2-.63.35-.93,3.57-7.13,7.24-14.2,10.71-21.38,5.9-12.22,11.63-24.52,17.52-36.75.65-1.35,1.86-2.45,2.84-3.64,2.93-3.52,6.54-6.67,8.67-10.62,4.9-9.07,8.84-18.65,13.64-27.77,3.29-6.25,5.27-13.4,12.01-17.56,2.33-1.44,3.81-4.55,5.23-7.14,6.69-12.24,12.46-25,21.88-35.6,2.68-3.01,2.77-6.41-1.15-9.4-3.96-3.01-7.16-7.01-11.11-10.04-22.89-17.58-42.93-38.78-68.01-53.56-12.26-7.22-24.21-15.15-37.08-21.1-12.53-5.79-25.88-10.01-39.16-13.93-22.88-6.74-45.96-12.84-69.03-18.93-11.11-2.93-22.4-5.16-33.58-7.82-9.62-2.29-19.18-4.81-28.81-7.05-3.52-.82-7.18-1.05-10.74-1.69-11.93-2.15-22.88-9.02-35.74-6.96-2.7.43-5.75-1.29-8.64-2.02-3.21-.8-6.38-1.85-9.64-2.36-17.36-2.68-34.74-5.23-52.11-7.82-4.52-.67-9.05-1.74-13.58-1.76-1.82,0-5.33,2.51-5.21,3.55.94,8.06-5.27,10.66-9.99,14.61-1.63,1.37-2.88,3.66-3.43,5.76-2.07,7.9-6.34,14.24-11.96,20.09-11.73,12.2-22.92,24.9-34.6,37.14-7.31,7.66-15.11,14.85-22.7,22.24-6.4,6.23-12.28,13.14-19.34,18.5-9.19,6.98-19.13,13.05-29.09,18.92-11.4,6.72-23.03,13.08-34.83,19.07-15.96,8.1-32.1,15.86-48.29,23.48-11.7,5.51-24.14,9.62-35.3,16.03-15.08,8.66-33.07,8.78-47.9,17.78-2.02,1.23-5.28.24-7.88.75-6.12,1.19-12.21,2.56-18.27,4.05-8,1.97-15.97,4.07-23.91,6.25-3.37.93-6.82,1.87-9.93,3.41-7.17,3.55-14.52,7.69-22.57,6-8.38-1.76-15.49.23-22.83,3.49-2.89,1.29-6.2,2.49-9.26,2.38-9.47-.35-18.5,1.26-27.45,4.19-3.41,1.12-7.13,1.46-10.74,1.76-5.86.49-11.77.51-17.63,1.01-6.87.58-13.7,1.77-20.58,2.12-8.23.42-16.52-.24-24.72.42-16.53,1.33-32.93,3.89-49.64,2.9-7.55-.45-15.2,1.2-22.82,1.58-6.29.31-13.42,2.06-18.75-.19-11.78-4.97-23.71-2.83-35.45-2.71-4.65.05-9.15,1.66-13.69-.74-2.3-1.22-4.59-2.81-7.06-3.25-3.16-.56-6.72-.83-9.68.11-1.81.58-2.81,3.68-4.14,5.6-1.59-.42-3.23-1.34-4.73-1.16-9.45,1.16-18.3-.6-27.01-4.34-3.91-1.68-8.34-2.16-12.53-3.2-4.73-1.17-9.51-2.17-14.16-3.58-4.98-1.51-9.74-3.84-14.78-5.02-5.13-1.2-10.51-1.25-14.56-5.44-.78-.81-2.39-.96-3.65-1.11-2.45-.3-5.61.45-7.2-.83-1.42-1.14-1.12-4.42-1.72-7.48-10.23,6.3-18.07,1.83-25.73-4.2-1.99-1.56-4.55-3.63-6.71-3.48-5.51.37-9.83-1.96-13.78-4.9-9.2-6.85-22.15-7.9-28.81-18.66-.29-.46-1.14-.67-1.77-.8-11.99-2.47-19.85-10.93-28-19.06-2.01-2.01-4.61-3.54-7.15-4.89-8.77-4.66-17.9-8.75-23.79-16.21ZM444.17,1101.28c3.06,1.9,6.73,2.87,7.82,5.09,4.56,9.31,10.17,18.69,11.94,28.65,1.91,10.78,6.06,20.27,10.27,29.98,6.91,15.93,14.66,31.34,27.98,43.13.96.85,2.11,1.88,2.41,3.03,3.67,13.82,13.67,23.36,22.65,33.56,1.89,2.14,4.87,5.36,6.85,5.03,8.25-1.35,10.92,5.03,13.18,9.84,4.86,10.35,11.09,19.55,19.04,27.53,7.97,8,16.42,15.55,24.89,23.03,6.21,5.49,12.48,11,19.26,15.72,11.68,8.12,23.71,15.77,35.75,23.35,6.46,4.06,13.24,7.6,19.91,11.31,15.64,8.7,30.92,18.19,47.07,25.82,17.8,8.41,36.19,15.64,55.15,21.32,11.99,3.6,23.7,8.12,35.62,11.97,6.31,2.04,12.71,4.07,19.23,5.12,13.67,2.22,27.43,3.84,41.17,5.62,5.9.77,11.82,1.58,17.75,1.94,9.6.57,19.22.75,28.83,1.17,5.61.24,11.22.99,16.82.89,9.91-.18,19.81-.89,29.72-1.28,13.41-.52,26.75,2.23,40.26.08,12.06-1.92,24.36-2.33,36.48-3.96,12.78-1.71,25.42-5.21,38.23-5.88,16.76-.87,32.97-4.25,48.9-8.62,16.23-4.46,32.79-7.56,48.83-13.13,10.06-3.49,20-7.75,30.72-10.16,12.72-2.87,24.53-10.01,36.51-15.77,6.42-3.09,14.03-4.43,18.34-11.25.67-1.06,2.93-1.22,4.5-1.6,13.03-3.14,25.26-8.01,36.41-15.62,5.16-3.52,10.91-6.17,16.13-9.62,6.85-4.53,13.1-10.08,20.23-14.07,11.19-6.27,16.15-20.02,29.31-23.73.77-.22,1.14-1.61,1.86-2.26,14.94-13.44,26.45-29.75,38.18-45.86,2.27-3.12,3.61-6.91,5.04-9.72-3.09-4.28-5.45-7.79-8.08-11.09-1.81-2.27-3.76-4.59-6.08-6.28-5.86-4.29-8.39-12.35-5.5-19.16,2.42-5.71,5.2-11.27,7.34-17.08,1.43-3.87,1.14-8.55,3.11-12.02,7.87-13.92,18.62-23.95,36.05-23.27,3.3.13,6.6.78,9.89.69,3.96-.11,7.66-2.23,6.75-6.35-.9-4.08,1.47-6.21,2.81-9.03,1.56-3.27,4.13-6.22,5-9.64,2.57-10.1,5.24-20.15,8-30.2,2.77-10.1,6.37-19.98,6.87-30.85.41-9.05,2.7-18.54,6.54-26.72,2.57-5.48,4.5-10.51,3.08-15.93-2.87-10.9-2.42-21.35,1.24-31.93.93-2.7.51-5.94.42-8.92-.37-13.6-1.15-27.19-1.2-40.78-.05-12.94,1.18-25.9.85-38.82-.38-14.56-1.82-29.09-2.93-43.62-.35-4.62-.97-9.23-1.7-13.81-2.82-17.68-6.62-35.25-8.27-53.03-.95-10.32-1.97-20.24-5.8-29.94-1.76-4.45-.88-10.23-3.31-14.07-3.57-5.64-4.54-10.74-2.1-15-2.39-4.05-4.53-6.59-5.5-9.51-2.08-6.28-3.36-12.82-5.32-19.14-3.48-11.26-4.53-23.18-11.61-33.48-4.34-6.31-9.28-12.87-10.13-21.15-.22-2.19-1.12-4.3-1.59-6.01-6.34-2.42-9.06,1.07-10.48,5.38-3.08-.77-6.14-2.51-7.3-1.66-4.61,3.39-10.22,6.19-12.02,14.06-1.93-1.04-2.32-2.77-3.24-4.14-3.29-4.89-5.96-10.65-10.37-14.22-5.63-4.55-6.55-9.93-5.72-15.92.63-4.52-.38-8.3-1.92-12.34-5.99-15.79-13.17-31.2-14.61-48.43-.89-10.6-4.29-20.49-9.19-30.06-3.07-6.01-6.18-13.05-5.89-19.47.38-8.54-1.42-15.55-5.89-22.42-1.61-2.48-3.28-5.29-3.68-8.12-2.05-14.53-9.17-27.01-15.89-39.55-6.63-12.38-9.57-25.68-11.96-39.2-5.44-3.62-12.27-5.64-15.38-13.13h6.66c-3.63-7.75-13.25-6.55-16.83-14.06-2.97-6.23-8.89-11.06-13.85-16.92,2.17-.27,3.32-.41,4.81-.59-.51-1.13-.74-2.1-1.29-2.8-5.86-7.35-16.25-10.36-19.47-20.3-.23-.71-1.54-1.28-2.46-1.54-11.36-3.18-18.35-12.78-27.37-19.26-15.8-11.34-29.96-24.96-45.04-37.33-19.76-16.21-39.76-32.14-59.73-48.25-4.82,2.39-9.61,4.76-14.88,7.37-2.84-1.66-5.97-4.99-9.03-4.92-4.68.1-7.21-2.15-8.65-5.32-3.89-8.57-13.37-13.55-14.84-23.6-.12-.81-1.25-1.5-1.96-2.19-8.97-8.79-18.51-17.08-26.77-26.5-10-11.39-23.62-15.38-36.91-20.09-5.13-1.82-11.85-.25-16.2-2.91-11.06-6.78-24.28-2.3-35.21-8.19-12.26,1.87-24.16-2.18-36.3-2.25-5.66-.03-11.75-1.15-16.87.56-5.22,1.74-9.89,2.1-15.15,1.58-2.68-.27-6.97.29-8.03,2.01-2.99,4.87-7.36,4.68-11.92,5.64-15.5,3.26-30.91,6.98-46.34,10.6-9.94,2.34-17.83,10.07-28.74,10.48-3.16.12-5.72,5.57-10.41,3.36-1.51,5.73-6.78,6.3-11.09,8.6-15.2,8.13-30.42,16.29-45.04,25.4-16.29,10.16-31.92,21.36-47.83,32.14-2.19,1.48-4.55,2.85-6.34,4.73-7.83,8.25-20.97,10.39-25.62,22.37-.47,1.22-2.69,1.73-4.07,2.62-2.51,1.62-5.31,2.95-7.45,4.97-10.32,9.7-20.86,19.23-30.58,29.51-12.54,13.28-24.45,27.16-36.5,40.9-12.36,14.09-24.15,28.77-35.19,43.79-7.1,9.65-15.64,17.82-22.96,27.15-9.65,12.3-17.59,25.39-24.57,39.22-3.74,7.41-7.54,14.79-11.27,22.2-4.76,9.44-10.21,18.61-14.04,28.41-5.18,13.24-9.03,27-13.58,40.5-2.97,8.8-6.88,17.35-9.08,26.33-2.26,9.25-2.65,18.94-4.42,28.34-2.2,11.65-5.22,23.14-7.44,34.78-2.88,15.09-5.43,30.25-7.92,45.41-1.39,8.45-2.63,16.94-3.47,25.45-.71,7.16-.11,14.48-1.27,21.54-1.05,6.41-.03,12.24.73,18.5.75,6.17-2.84,12.74-3.3,19.21-.63,8.75.27,17.59-.12,26.37-.61,13.56-2.23,27.08-2.54,40.64-.28,11.94,1.37,23.94.83,35.86-.51,11.17,6.53,16.32,13.75,22.34,5.01-4.85,9.52-9.22,14.04-13.58.56.44,1.12.87,1.68,1.31-.57,1.7-.64,4.27-1.8,4.94-5.29,3.05-3.79,6.54-3.08,11.61,1.08,7.77,7.51,16.45-1.01,24.05-.54.48-.63,2.05-.29,2.85,2.53,6.11-2.18,10.08-4.53,14.5-2.89,5.42-6.79,10.31-9.93,14.95,9.84,12.89,8.42,25.9,5.19,39.89.89.75,2.3,1.94,3.53,2.97-.68,2.95-1.31,5.72-1.67,7.28,3.51,2.65,7.66,4.14,8.22,6.49,1.82,7.66,3.11,15.64,2.97,23.47-.06,3.54.27,5.99,1.95,9.02,9.14,16.46,12.95,33.98,9.36,53.15ZM243.14,292.5c-5.95.4-11.95.49-17.85,1.28-10.09,1.36-20.08,4.04-30.19,4.55-12.72.65-15.43,4.91-19.6,14.58-3.4,7.88-6.82,15.78-10.7,23.43-2.67,5.28-5.94,9.96-6.55,16.34-.45,4.67-3.74,9.07-5.74,13.61-1.04,2.36-2,4.76-3.03,7.13-2.34,5.37.04,12.83-7.16,16.08-.41.19-.55,1.15-.68,1.78-1.63,7.75-3.08,15.55-4.91,23.25-1.38,5.8-2.85,11.63-4.98,17.18-3.07,7.99-8.17,15.31-6.99,24.56.18,1.43-1.13,3.04-1.69,4.59-3.78,10.51-8.14,20.85-11.15,31.57-4.26,15.16-8.44,30.45-10.98,45.96-4.32,26.35-12.46,52.15-12.05,79.23.33,21.84-1.19,43.68,1.61,65.53,1.18,9.23,5.06,17.12,8.26,25.42,6.05,15.71,12.34,31.32,18.59,46.95.34.86,1.12,1.77,1.93,2.18,6.44,3.26,8.27,10.03,11.88,15.43,1.66,2.48,2.81,5.35,4.74,7.58,15.36,17.82,29.9,36.48,46.55,53.02,18.05,17.93,37.9,34.11,57.47,50.44,3.72,3.1,7.92,5.5,11.06,9.45,2.02,2.54,4.84,4.66,7.7,6.27,15.88,9,31.76,18.04,47.91,26.53,5.49,2.89,11.71,4.56,17.76,6.19,5.71,1.53,8-.27,7.81-6.4-.19-5.87-1.83-11.69-2.08-17.56-.62-14.84-.75-29.69-1.21-44.54-.35-11.23-1.25-22.45-1.28-33.68-.02-10.28.77-20.56,1.27-30.84.58-11.94,1.17-23.88,1.85-35.81.89-15.54,1.86-31.07,2.82-46.6.16-2.64.38-5.28.71-7.91,1.74-14.13,3.51-28.25,5.29-42.38.29-2.27.53-4.57,1.08-6.78.85-3.43,2.25-6.73,2.86-10.19,2.25-12.57,4.18-25.2,6.44-37.78.69-3.86,2.05-7.6,3.04-11.41,5.58-21.45,10.38-43.14,16.95-64.29,5.29-17.03,12.94-33.31,19.13-50.07,5.83-15.78,13.42-30.62,22.85-44.46,4.92-7.22,5.11-13.98,2.04-21.93-4.61-11.94-9.02-24.05-12.28-36.41-4.69-17.82-17.1-29.59-30.03-41.08-4.66-4.14-9.99-7.56-15.13-11.14-7.08-4.93-13.8-10.7-21.51-14.34-14.87-7-32.18-8.04-45.89-18.18-.25-.18-.63-.22-.95-.27-14.92-2.47-29.49-7.68-45-6.07ZM1588.52,893.2c4.18-3.57,8.08-6.21,11.11-9.62,6.56-7.4,13.11-14.88,18.84-22.91,5.76-8.07,10.64-16.78,15.67-25.34,1.44-2.46,1.76-5.58,3.15-8.08,7.24-13,13.22-26.44,15.74-41.23.21-1.26.47-2.91,1.33-3.6,4.72-3.74,8.09-7.79,5.58-14.34-.21-.54.76-2.02,1.5-2.35,4.41-1.98,3.22-5.76,3.64-9.34.85-7.21,2.43-14.33,3.7-21.49.74-4.21,1.89-8.41,2.07-12.65.25-6.17-.84-12.44-.24-18.55,1.27-12.83,4.43-25.57,4.72-38.39.43-19.14,7.22-38.1,1.8-57.39,3.46-9.14,1.2-18.37.49-27.59-1.52-19.83-3.01-39.65-4.52-59.48-.08-.99-.2-1.99-.36-2.97-2.45-14.99-5.84-29.9-6.92-44.99-.45-6.27-3.17-11.34-4.21-17.12-3.34-18.51-6.37-37.11-10.7-55.4-4.97-20.97-13.47-40.84-21.93-60.59-6.14-14.34-13.28-28.33-20.96-41.91-8.64-15.26-18.07-30.1-27.78-44.7-5.87-8.82-12.68-17.05-19.52-25.16-10.84-12.87-21.81-25.65-33.21-38.02-8.52-9.24-17.77-17.8-26.79-26.58-1.22-1.19-2.95-1.87-4.59-2.88-2.15,5.81.47,7.89,4.5,10.86,6.8,5.01,12.45,11.59,18.47,17.62.28.28-.56,1.69-1.25,3.58-2.61-2.22-5-3.87-6.92-5.96-15.03-16.28-33.61-28.18-51.33-41.05-7.19-5.23-15.35-9.11-21.42-15.88-4.74-5.3-10.46-8.91-17.39-10.81-2.83-.78-5.44-2.5-8.02-4.01-8.89-5.2-17.93-10.16-26.5-15.84-7.46-4.95-14.96-6.26-23.42-3-1.11,2.27-2.24,4.65-3.41,7-3.97,7.96-9.06,15.68-4.43,25.25.52,1.07-.45,3.14-1.2,4.48-3.74,6.66-7.79,13.18-4.94,21.38.31.88.08,2-.09,2.98-4.55,25.55.25,50.99.87,76.47.02.66-.12,1.51.22,1.96,2.16,2.87,5.65,5.39,6.32,8.53.61,2.85-3.11,6.53-2.68,9.52,1.65,11.35,4.23,22.56,6.42,33.84,1.2,6.18,2.76,12.34,3.24,18.58.29,3.72,1.74,6.63,2.82,9.92,2.96,9.04,10.83,16.86,7.85,27.66-.34,1.22,1,2.98,1.73,4.41,5.55,10.87,11.27,21.66,16.66,32.61,1.58,3.22,3.02,6.85,3.17,10.35.26,6.29,3.08,10.58,7.81,14.29,2.05,1.6,4.97,4.11,4.86,6.05-.28,5.05,3.89,7.22,5.28,10.8,2.05,5.31,7.11,7.59,9.63,11.9,7.16,12.24,13.68,24.85,20.47,37.31,1.59,2.92,3.39,5.73,4.95,8.67,6.98,13.13,14.44,26.04,20.71,39.51,7.54,16.21,14.68,32.67,20.85,49.45,6.44,17.5,16.42,33.71,19.28,52.53.19,1.23,1.15,2.34,1.75,3.51,8.66,16.91,15.72,34.36,18.86,53.25,1.03,6.18,1.5,12.87,4.29,18.25,6.33,12.24,7.75,25.76,11.65,38.6,2.2,7.25,3.89,14.68,5.46,22.1,1.64,7.7,3.58,15.45,4.02,23.25.29,5.12.18,9.77,3.68,13.97,2.42,2.91,2.65,5.92,1.35,10.07-2.05,6.53-1.39,13.5,1.07,20.27,3.63,9.97,6.37,20.12,2.7,30.88-.63,1.86.09,4.32.6,6.4.45,1.82,2.25,3.55,2.14,5.23-.41,6.13,3.48,9.89,7.18,13.54,4.21,4.16,9,7.73,14.58,12.43Z"/>
        <path d="M614.77,642.51c2.81-6.88,4.04-12.32,7-16.55,4.04-5.77,4.74-11.76,3.1-17.94-1.11-4.18-.16-7.02,3.02-10.43,2.17.85,4.52,1.78,6.83,2.69,2.15-1.36,4.28-2.71,7.75-4.91-1.29,9.8,8.68,8.08,11.66,15.71.77-4.31,1.22-6.87,2.01-11.3,4.49,4.94,7.88,8.68,11.53,12.69,1.56-1.85,3.1-3.67,4.95-5.86,5,4.22,3.01,13.76,12.38,13-.82,3.4-1.42,5.88-1.94,8,.23.74.23,1.17.44,1.35,4.38,3.77,8.85,7.43,13.13,11.32,1.31,1.19,2.43,2.84,3.06,4.5,3.99,10.49,7.84,21.04,11.66,31.59.88,2.45,1.54,4.98,2.15,7.52,1.3,5.43,2.53,10.88,3.73,16.34,1.27,5.74,2.49,11.48,3.69,17.23.27,1.29-.13,3,.58,3.86,9.44,11.48,8.67,25.92,10.71,39.29.81,5.29-2.41,11.49-4.71,16.89-7.14,16.73-18.45,31.13-31.08,43.49-9.83,9.62-22.3,17.7-36.87,20.48-2.87.55-5.75,1.69-8.32,3.11-5.26,2.91-10.34,5.46-16.8,4.23-2.19-.42-5.59.84-7.15,2.52-7.88,8.48-18.72,8.73-28.78,10.26-8.62,1.31-17.57.84-26.35.63-10.45-.25-20.4-2.34-28.66-9.57-2.2-1.93-5.13-3.01-7.7-4.52-3.81-2.25-7.56-4.37-5.74-10.1.47-1.49-.4-4.42-1.64-5.27-4.48-3.1-3.66-7.4-3.56-11.67.23-9.65.54-19.29.64-28.94.15-14.23.75-28.28,3-42.51,3.32-20.97,7.41-41.61,15.43-61.2,6.31-15.4,14.88-29.74,28.89-39.58,8.14-5.72,16.84-10.31,27.74-7.16,4.54,1.31,9.67.61,14.2.81ZM615.73,744.45c-.83-.24-1.66-.48-2.49-.72-.79,2.4-1.93,4.74-2.29,7.2-.72,4.88-.55,9.93-1.61,14.72-1.25,5.68-.47,12.47-8.68,16.04,10.35,1.18,2.68,9.75,8.36,13.19,3.87-.6,9.25,1.88,13.02-2.92,4.06-5.18-.73-9.22-2.26-13.66-.32-.94-.5-2.14-1.18-2.7-4.26-3.56-3.16-8.16-2.94-12.76.29-6.11.07-12.25.07-18.38Z"/>
        <path d="M1299.23,672.44c-6.28,7.23-11.58,15.12-22.88,12.97-1.22-.23-2.81,1.53-4.23,2.37-6.22,3.72-12.43,7.47-18.66,11.16-1.14.67-2.61,1.84-3.57,1.56-9.09-2.68-17.37,3.06-26.16,2.3-2.69-.23-6.25-1.12-7.71-3.02-7.24-9.43-13.92-19.29-20.76-29.02-.93-1.32-1.34-3.11-2.48-4.14-9.38-8.39-18.74-16.81-28.42-24.83-2.65-2.2-6.37-3.1-10.99-5.24.93,8.57,1.68,15.61,2.5,22.65.07.6.42,1.4.89,1.7,10.57,6.67,5.87,17.02,6.32,26.11.12,2.5-.83,5.54.27,7.43,7.95,13.78,2.76,26.6-4.18,37.99-5.28,8.68-13.73,15.42-25.63,14.64-2.42-.16-5.28.97-7.37,2.36-11.88,7.91-25.04,11.16-39.11,11.5-1.66.04-3.38-.07-4.96.35-17.41,4.57-33.46.12-48.92-7.55-2.41-1.2-4.7-3.53-6-5.91-2.99-5.47-4.87-11.57-8.02-16.92-6.42-10.91-9.14-21.77-7.33-34.93,1.21-8.82,2.11-18.11,2.12-27.18.02-9.85,4.54-18.27,6.77-27.38,2.67-10.91,5.64-21.77,8.96-32.51,4.25-13.74,10.52-26.92,21.64-35.99,5.98-4.88,12.57-9.34,18.76-14.22,5.42-4.28,12.41-4.77,19.01-4.28,6.88.51,13.12-.93,19.41-3.3,8.95-3.38,17.97-3.86,27.34-1.01,4.99,1.51,10.44,1.84,15.71,2.05,14.15.56,28.12,4.16,39.7,11.03,14.38,8.53,29.2,16.88,41.51,29.02,12.71,12.54,24.29,26.01,36.52,38.91,8.9,9.38,15.13,19.92,21.15,30.97,1.97,3.61,5.39,6.43,8.79,10.35ZM1147.94,634.09c-7.35-3.52-14.11-6.79-20.9-10.01-5.71-2.72-11.31-4.52-16.85.65-1.19,1.11-3.42,1.11-4.77,1.5v10.12c6.88-.69,13.17-1.33,19.73-1.99,3.27,10.99,10.48,15.57,20,15.8,1.02-5.85,1.86-10.7,2.8-16.08Z"/>
      </g>
    </g>
  </g>
</svg>